<?xml version="1.0" encoding="UTF-8"?>
<svg width="17px" height="17px" viewBox="0 0 17 17" version="1.1" xmlns="http://www.w3.org/2000/svg" xmlns:xlink="http://www.w3.org/1999/xlink">
    <!-- Generator: Sketch 57.1 (83088) - https://sketch.com -->
    <title>Group 4</title>
    <desc>Created with Sketch.</desc>
    <g id="Android-v5" stroke="none" stroke-width="1" fill="none" fill-rule="evenodd">
        <g id="Group-4" fill="#C6C7C8">
            <g id="noun_whatsapp_988426">
                <path d="M8.50000039,5.79545455e-05 C3.81131925,5.79545455e-05 6.02727273e-05,3.80935227 6.02727273e-05,8.50000386 C6.02727273e-05,10.2045243 0.505161182,11.7976948 1.39573902,13.1644368 L0.445164705,16.3365982 C0.403592009,16.4754329 0.443210696,16.6258572 0.547778303,16.7262016 C0.652345909,16.826546 0.804274829,16.8599332 0.941278795,16.8126755 L4.04619357,15.7411152 C5.33905709,16.539072 6.86790959,16.9999459 8.50000039,16.9999459 C13.1905218,16.9999459 16.9999397,13.1905164 16.9999397,8.50000386 C16.9999397,3.80946818 13.1905218,5.79545455e-05 8.50000039,5.79545455e-05 L8.50000039,5.79545455e-05 Z M8.50000039,0.772669318 C12.7731138,0.772669318 16.2273342,4.22687614 16.2273342,8.50000386 C16.2273342,12.7731084 12.7731138,16.2273345 8.50000039,16.2273345 C6.95098357,16.2273345 5.5103147,15.7729902 4.30572175,14.9913959 C4.20592295,14.9266468 4.08186025,14.9114823 3.9694038,14.9502868 L1.40165425,15.8364505 L2.18790425,13.2124811 C2.22132828,13.1009269 2.20265328,12.9802477 2.13707425,12.8840141 C1.26415516,11.603238 0.772667773,10.1114493 0.772667773,8.50000386 C0.772667773,4.22699205 4.2289088,0.772669318 8.50000039,0.772669318 L8.50000039,0.772669318 Z" id="Shape"></path>
            </g>
            <path d="M6.90804252,6.36094442 C6.95427465,6.43733689 6.94212675,6.5354604 6.87866085,6.59827201 L6.2943974,7.17649946 C6.2331231,7.23832412 6.22076342,7.33349168 6.26411091,7.40874066 C7.22246803,9.0683458 8.27046884,10.1431484 9.61025811,10.7336323 C9.68295964,10.7659277 9.76802514,10.7503543 9.8238537,10.6951093 L10.4456577,10.0732957 C10.5092664,10.0096859 10.6083623,9.99839985 10.6846456,10.0460772 L12.9545312,11.4647659 C13.0361444,11.5157745 13.0677632,11.6190768 13.0286827,11.7070275 C12.7736524,12.2809725 12.4282772,12.6678554 11.9879217,12.8984448 C11.5158994,13.1456057 10.9430258,13.1968744 10.2894821,13.0613489 C9.06660299,12.8077596 7.57572026,11.8637712 6.32693529,10.5864188 C5.08167385,9.31267057 4.16495983,7.80242985 3.92709354,6.58245231 C3.80125934,5.93706386 3.85861478,5.37346614 4.10373994,4.92020759 C4.331165,4.49966907 4.70849791,4.17922757 5.26456215,3.95731558 C5.35231334,3.92229618 5.45251917,3.9558851 5.50143741,4.03671601 L6.90804252,6.36094442 Z" id="Shape" fill-rule="nonzero"></path>
        </g>
    </g>
</svg>
